<svg width="25" height="20" viewBox="0 0 25 20" fill="none" xmlns="http://www.w3.org/2000/svg">
<g clip-path="url(#clip0_411_549)">
<path d="M6.05184 2.48519C6.05184 2.1147 6.04526 1.78892 6.05184 1.46315C6.06501 0.645517 6.71037 0.00674393 7.55987 0.00674393C10.701 0.000356191 13.8356 0.000356191 16.9768 0.00674393C17.8263 0.00674393 18.465 0.626354 18.4914 1.45676C18.5045 1.78892 18.4914 2.12108 18.4914 2.48519C18.6165 2.48519 18.7087 2.48519 18.8075 2.48519C20.2233 2.48519 21.6325 2.48519 23.0484 2.48519C23.9242 2.48519 24.4444 2.98343 24.4444 3.833C24.4444 7.9467 24.4444 12.0604 24.4444 16.1741C24.4444 17.0109 23.9242 17.5155 23.0615 17.5155C21.6391 17.5155 20.2167 17.5155 18.7943 17.5155C18.7087 17.5155 18.6165 17.5155 18.4914 17.5155C18.4914 17.8221 18.4914 18.1032 18.4914 18.3906C18.4848 19.3935 17.8658 20.0004 16.8385 20.0004C13.7895 20.0004 10.7405 20.0004 7.69157 20.0004C6.67086 20.0004 6.05184 19.3935 6.05184 18.4034C6.05184 18.116 6.05184 17.8349 6.05184 17.5155C5.93331 17.5155 5.84112 17.5155 5.74234 17.5155C4.29358 17.5155 2.85141 17.5155 1.40266 17.5155C0.513649 17.5155 0 17.0173 0 16.1549C0 12.054 0 7.95947 0 3.85855C0 2.97704 0.507064 2.48519 1.42241 2.48519C2.87117 2.48519 4.31334 2.48519 5.76209 2.48519C5.8477 2.48519 5.93331 2.48519 6.05184 2.48519ZM17.3653 10.0036C17.3653 7.2185 17.3653 4.43983 17.3653 1.65478C17.3653 1.20125 17.2665 1.09905 16.8056 1.09905C13.7829 1.09905 10.7603 1.09905 7.73767 1.09905C7.28987 1.09905 7.18451 1.20125 7.18451 1.62923C7.18451 7.21211 7.18451 12.7886 7.18451 18.3715C7.18451 18.7995 7.28987 18.9017 7.73767 18.9017C10.734 18.9017 13.7368 18.9017 16.7331 18.9017C17.2863 18.9017 17.3653 18.825 17.3653 18.3012C17.3653 15.5353 17.3653 12.7694 17.3653 10.0036ZM6.03867 6.86078C6.03867 5.74932 6.03867 4.67618 6.03867 3.59665C5.95306 3.59026 5.88063 3.58388 5.80819 3.58388C4.35285 3.57749 2.89751 3.57749 1.44875 3.57749C1.13925 3.57749 1.13266 3.58388 1.13266 3.89049C1.13266 7.96586 1.13266 12.0348 1.13266 16.1102C1.13266 16.4168 1.13925 16.4232 1.44875 16.4232C2.90409 16.4232 4.35943 16.4232 5.80819 16.4232C5.88721 16.4232 5.96624 16.4104 6.03867 16.4104C6.03867 15.8611 6.03867 15.3373 6.03867 14.788C5.53819 14.788 5.05747 14.7944 4.57675 14.788C3.81286 14.7816 3.14775 14.2514 3.00946 13.5424C2.858 12.795 3.23336 12.0668 3.95115 11.7793C4.18163 11.6899 4.44504 11.6516 4.69528 11.6388C5.14308 11.6196 5.59088 11.6324 6.04526 11.6324C6.04526 10.3932 6.04526 9.18592 6.04526 7.94031C5.02454 7.94031 4.02359 7.94031 3.02921 7.94031C3.02921 7.56343 3.02921 7.21211 3.02921 6.8544C4.03017 6.86078 5.02454 6.86078 6.03867 6.86078ZM18.5111 16.4232C18.6099 16.4232 18.6824 16.4232 18.7548 16.4232C20.1706 16.4232 21.5799 16.4232 22.9957 16.4232C23.3052 16.4232 23.3118 16.4168 23.3118 16.1166C23.3118 12.0412 23.3118 7.97225 23.3118 3.89687C23.3118 3.59026 23.3052 3.58388 23.0023 3.58388C21.5864 3.58388 20.1772 3.58388 18.7614 3.58388C18.6824 3.58388 18.6033 3.59026 18.5111 3.59665C18.5111 4.68895 18.5111 5.76209 18.5111 6.86078C19.4858 6.86078 20.4538 6.86078 21.4284 6.86078C21.4284 7.23766 21.4284 7.5826 21.4284 7.95947C20.4538 7.95947 19.4858 7.95947 18.5111 7.95947C18.5111 9.19869 18.5111 10.406 18.5111 11.6388C18.9655 11.6388 19.4067 11.6324 19.8479 11.6388C20.9082 11.658 21.6523 12.5523 21.4416 13.5487C21.2967 14.245 20.6513 14.7688 19.9138 14.788C19.4462 14.7944 18.9853 14.788 18.5045 14.788C18.5111 15.3437 18.5111 15.8675 18.5111 16.4232ZM6.03867 12.7311C5.53161 12.7311 5.05747 12.7247 4.58333 12.7311C4.31334 12.7375 4.11578 12.9355 4.09602 13.1783C4.07627 13.3954 4.24749 13.6573 4.47138 13.6701C4.99162 13.6893 5.51185 13.6765 6.03867 13.6765C6.03867 13.3571 6.03867 13.0569 6.03867 12.7311ZM18.5111 12.7311C18.5111 13.0633 18.5111 13.3699 18.5111 13.6893C18.9721 13.6893 19.4133 13.6957 19.8545 13.6893C20.1377 13.6829 20.3418 13.4849 20.3484 13.2294C20.355 12.9675 20.1443 12.7439 19.8611 12.7375C19.4199 12.7247 18.9787 12.7311 18.5111 12.7311Z" fill="#13204D"/>
<path d="M12.1624 13.1083C12.6695 13.1083 13.1831 13.1019 13.6902 13.1083C14.6977 13.1211 15.4682 13.8557 15.5011 14.8266C15.5341 15.7592 14.7965 16.5768 13.8021 16.6152C12.7156 16.6535 11.6158 16.6535 10.5293 16.6152C9.50856 16.5768 8.79077 15.7784 8.81711 14.7883C8.84345 13.8557 9.64026 13.1211 10.6346 13.1083C11.1417 13.1019 11.6488 13.1083 12.1624 13.1083ZM12.1427 15.542C12.6234 15.542 13.1107 15.5484 13.5914 15.542C14.059 15.5356 14.3816 15.2546 14.3751 14.8585C14.3685 14.4689 14.059 14.207 13.598 14.2006C12.6366 14.1942 11.6817 14.2006 10.7202 14.2006C10.6083 14.2006 10.4898 14.2134 10.3844 14.2453C10.0683 14.3539 9.89709 14.6605 9.95636 14.9927C10.009 15.2993 10.2856 15.5293 10.6412 15.5356C11.1417 15.5484 11.6422 15.5356 12.1427 15.542Z" fill="#13204D"/>
<path d="M13.3498 6.31155H11.0942C10.7485 6.31155 10.4171 6.20333 10.1726 6.0107C9.92824 5.81807 9.79093 5.55681 9.79093 5.28439C9.79093 5.01197 9.92824 4.75071 10.1726 4.55808C10.4171 4.36545 10.7485 4.25723 11.0942 4.25723H14.7032V3.54612H12.7859V2.22266H11.8837V3.54612H11.0942C10.5092 3.54612 9.94826 3.72926 9.53465 4.05525C9.12104 4.38124 8.88867 4.82337 8.88867 5.28439C8.88867 5.74541 9.12104 6.18754 9.53465 6.51353C9.94826 6.83952 10.5092 7.02266 11.0942 7.02266H13.3498C13.6954 7.02296 14.0266 7.13128 14.2709 7.32384C14.5153 7.5164 14.6527 7.77749 14.6531 8.04981V8.12883C14.6527 8.40116 14.5153 8.66224 14.2709 8.8548C14.0266 9.04737 13.6954 9.15568 13.3498 9.15599H9.53195V9.8671H11.8837V11.1115H12.7859V9.8671H13.3498C13.9346 9.86658 14.4952 9.68328 14.9086 9.3574C15.3221 9.03153 15.5547 8.58969 15.5553 8.12883V8.04981C15.5547 7.58895 15.3221 7.14712 14.9086 6.82124C14.4952 6.49537 13.9346 6.31206 13.3498 6.31155Z" fill="#13204D" stroke="#13204D" stroke-width="0.2"/>
</g>
<defs>
<clipPath id="clip0_411_549">
<rect width="24.4444" height="20" fill="white"/>
</clipPath>
</defs>
</svg>
