<svg width="19" height="17" viewBox="0 0 19 17" fill="none" xmlns="http://www.w3.org/2000/svg">
<path d="M12.4286 11.714V7.42829C12.4286 5.40829 12.4286 4.39758 11.8007 3.77044C11.1736 3.14258 10.1629 3.14258 8.14286 3.14258H5.28571C3.26571 3.14258 2.255 3.14258 1.62786 3.77044C1 4.39758 1 5.40829 1 7.42829V11.714C1 13.734 1 14.7447 1.62786 15.3719C2.255 15.9997 3.26571 15.9997 5.28571 15.9997H13.8571M3.85714 6.71401H9.57143M3.85714 9.57115H9.57143M3.85714 12.4283H6.71429" stroke="black" stroke-linecap="round" stroke-linejoin="round"/>
<path d="M12.4277 6.71484H13.142C14.152 6.71484 14.657 6.71484 14.9706 7.02913C15.2849 7.3427 15.2849 7.8477 15.2849 8.8577V14.572C15.2849 14.9509 15.1344 15.3142 14.8665 15.5821C14.5985 15.85 14.2352 16.0006 13.8563 16.0006C13.4774 16.0006 13.1141 15.85 12.8462 15.5821C12.5782 15.3142 12.4277 14.9509 12.4277 14.572V6.71484Z" stroke="black" stroke-linecap="round" stroke-linejoin="round"/>
<path d="M17.5426 3.50036L17.5426 3.501C17.5454 3.94599 17.393 4.37803 17.1115 4.72273C16.8301 5.06742 16.4373 5.30318 16.0007 5.38941C15.5641 5.47563 15.1112 5.40692 14.7198 5.19511C14.3284 4.9833 14.0232 4.64165 13.8566 4.22899C13.6901 3.81634 13.6726 3.35853 13.8073 2.93439C13.942 2.51026 14.2203 2.14636 14.5944 1.90538C14.9685 1.66439 15.4149 1.5614 15.8568 1.61414C16.2157 1.65697 16.5533 1.80036 16.8318 2.02536H16.4876C16.3948 2.02536 16.3057 2.06224 16.2401 2.12788C16.1745 2.19351 16.1376 2.28254 16.1376 2.37536C16.1376 2.46819 16.1745 2.55721 16.2401 2.62285C16.3057 2.68849 16.3948 2.72536 16.4876 2.72536H17.6201C17.7129 2.72536 17.8019 2.68849 17.8676 2.62285C17.9332 2.55721 17.9701 2.46819 17.9701 2.37536V1.25037C17.9701 1.15754 17.9332 1.06852 17.8676 1.00288C17.8019 0.937241 17.7129 0.900366 17.6201 0.900366C17.5273 0.900366 17.4382 0.937241 17.3726 1.00288C17.307 1.06852 17.2701 1.15754 17.2701 1.25037V1.47238C16.8643 1.14668 16.3686 0.94907 15.8464 0.908006C15.2493 0.861044 14.6542 1.02171 14.1619 1.36284C13.6695 1.70397 13.31 2.20464 13.1442 2.78023C12.9784 3.35581 13.0164 3.971 13.2518 4.52179C13.4872 5.07259 13.9055 5.52522 14.4362 5.80315C14.9668 6.08109 15.5771 6.1673 16.1639 6.0472C16.7507 5.9271 17.2781 5.60806 17.6568 5.14401C18.0356 4.67996 18.2425 4.09937 18.2426 3.50038V3.50036C18.2426 3.40754 18.2057 3.31851 18.1401 3.25288C18.0744 3.18724 17.9854 3.15036 17.8926 3.15036C17.7998 3.15036 17.7107 3.18724 17.6451 3.25288C17.5795 3.31851 17.5426 3.40754 17.5426 3.50036Z" fill="black" stroke="black" stroke-width="0.2"/>
</svg>
