<svg width="23" height="23" viewBox="0 0 23 23" fill="none" xmlns="http://www.w3.org/2000/svg">
<path d="M12.3333 7.04762C12.3333 7.32546 12.2163 7.59193 12.0079 7.7884C11.7995 7.98486 11.5169 8.09524 11.2222 8.09524C10.9275 8.09524 10.6449 7.98486 10.4365 7.7884C10.2282 7.59193 10.1111 7.32546 10.1111 7.04762C10.1111 6.76977 10.2282 6.50331 10.4365 6.30684C10.6449 6.11037 10.9275 6 11.2222 6C11.5169 6 11.7995 6.11037 12.0079 6.30684C12.2163 6.50331 12.3333 6.76977 12.3333 7.04762ZM9 10.9762C9 10.7678 9.0878 10.568 9.24408 10.4206C9.40036 10.2733 9.61232 10.1905 9.83333 10.1905H11.5C11.721 10.1905 11.933 10.2733 12.0893 10.4206C12.2455 10.568 12.3333 10.7678 12.3333 10.9762V15.4286H13.1667C13.3877 15.4286 13.5996 15.5114 13.7559 15.6587C13.9122 15.8061 14 16.0059 14 16.2143C14 16.4227 13.9122 16.6225 13.7559 16.7699C13.5996 16.9172 13.3877 17 13.1667 17H9.83333C9.61232 17 9.40036 16.9172 9.24408 16.7699C9.0878 16.6225 9 16.4227 9 16.2143C9 16.0059 9.0878 15.8061 9.24408 15.6587C9.40036 15.5114 9.61232 15.4286 9.83333 15.4286H10.6667V11.7619H9.83333C9.61232 11.7619 9.40036 11.6791 9.24408 11.5318C9.0878 11.3844 9 11.1846 9 10.9762Z" fill="#121212"/>
<path d="M11.5 0C17.8511 0 23 5.14886 23 11.5C23 17.8511 17.8511 23 11.5 23C5.14886 23 0 17.8511 0 11.5C0 5.14886 5.14886 0 11.5 0ZM1.56818 11.5C1.56818 14.1341 2.61457 16.6603 4.47714 18.5229C6.33972 20.3854 8.86592 21.4318 11.5 21.4318C14.1341 21.4318 16.6603 20.3854 18.5229 18.5229C20.3854 16.6603 21.4318 14.1341 21.4318 11.5C21.4318 8.86592 20.3854 6.33972 18.5229 4.47714C16.6603 2.61457 14.1341 1.56818 11.5 1.56818C8.86592 1.56818 6.33972 2.61457 4.47714 4.47714C2.61457 6.33972 1.56818 8.86592 1.56818 11.5Z" fill="#121212"/>
</svg>
