<svg width="16" height="16" viewBox="0 0 16 16" fill="none" xmlns="http://www.w3.org/2000/svg">
<path d="M7.4 11.577V11.677H7.5H8.5H8.6V11.577V3.16842L10.7603 5.32871L10.8315 5.39997L10.9023 5.32816L11.6103 4.60916L11.6799 4.53846L11.6097 4.46829L8.07071 0.929289L7.99999 0.858569L7.92928 0.929299L4.39128 4.4683L4.32108 4.53852L4.39079 4.60921L5.0988 5.32721L5.1695 5.39892L5.24071 5.32771L7.4 3.16842V11.577ZM0.9 13.384L0.9 13.3841C0.900703 13.8702 1.06438 14.2808 1.39229 14.6087C1.72021 14.9366 2.13051 15.1 2.616 15.1H13.384L13.3841 15.1C13.8702 15.0993 14.2808 14.9356 14.6087 14.6077C14.9366 14.2798 15.1 13.8695 15.1 13.384V10.961V10.861H15H14H13.9V10.961L13.9 13.384L13.9 13.3844C13.9005 13.5077 13.8507 13.6244 13.7375 13.7371C13.6238 13.8501 13.5071 13.9 13.385 13.9L2.615 13.9L2.61457 13.9C2.49208 13.9005 2.37565 13.8508 2.26289 13.7375C2.14996 13.6239 2.1 13.5069 2.1 13.384V10.961V10.861H2H1H0.9V10.961L0.9 13.384Z" fill="#13204D" stroke="#121212" stroke-width="0.2"/>
</svg>
