<svg width="41" height="34" viewBox="0 0 41 34" fill="none" xmlns="http://www.w3.org/2000/svg">
<path d="M10.1506 4.2254C10.1506 3.59557 10.1395 3.04175 10.1506 2.48794C10.1727 1.09797 11.2551 0.0120506 12.68 0.0120506C17.9485 0.00119146 23.2061 0.00119146 28.4747 0.0120506C29.8995 0.0120506 30.9709 1.06539 31.0151 2.47708C31.0372 3.04175 31.0151 3.60643 31.0151 4.2254C31.2249 4.2254 31.3796 4.2254 31.5453 4.2254C33.92 4.2254 36.2837 4.2254 38.6584 4.2254C40.1274 4.2254 41 5.07241 41 6.51668C41 13.51 41 20.5033 41 27.4966C41 28.9191 40.1274 29.777 38.6805 29.777C36.2947 29.777 33.9089 29.777 31.5232 29.777C31.3796 29.777 31.2249 29.777 31.0151 29.777C31.0151 30.2982 31.0151 30.776 31.0151 31.2647C31.004 32.9696 29.9658 34.0012 28.2427 34.0012C23.1288 34.0012 18.0148 34.0012 12.9009 34.0012C11.1888 34.0012 10.1506 32.9696 10.1506 31.2864C10.1506 30.7977 10.1506 30.3199 10.1506 29.777C9.95178 29.777 9.79714 29.777 9.63146 29.777C7.20151 29.777 4.7826 29.777 2.35264 29.777C0.86153 29.777 0 28.93 0 27.464C0 20.4924 0 13.5317 0 6.56012C0 5.06156 0.850485 4.2254 2.38578 4.2254C4.81573 4.2254 7.23464 4.2254 9.6646 4.2254C9.80819 4.2254 9.95178 4.2254 10.1506 4.2254ZM29.1263 17.0066C29.1263 12.272 29.1263 7.5483 29.1263 2.81371C29.1263 2.04271 28.9607 1.86897 28.1875 1.86897C23.1177 1.86897 18.048 1.86897 12.9782 1.86897C12.2271 1.86897 12.0504 2.04271 12.0504 2.77028C12.0504 12.2612 12.0504 21.7412 12.0504 31.2321C12.0504 31.9597 12.2271 32.1334 12.9782 32.1334C18.0038 32.1334 23.0404 32.1334 28.066 32.1334C28.9938 32.1334 29.1263 32.0031 29.1263 31.1127C29.1263 26.4106 29.1263 21.7086 29.1263 17.0066ZM10.1285 11.6639C10.1285 9.77443 10.1285 7.95009 10.1285 6.11489C9.98491 6.10403 9.86342 6.09317 9.74192 6.09317C7.30092 6.08232 4.85991 6.08232 2.42996 6.08232C1.91083 6.08232 1.89978 6.09318 1.89978 6.61441C1.89978 13.5426 1.89978 20.4598 1.89978 27.388C1.89978 27.9092 1.91083 27.9201 2.42996 27.9201C4.87096 27.9201 7.31196 27.9201 9.74192 27.9201C9.87446 27.9201 10.007 27.8984 10.1285 27.8984C10.1285 26.9645 10.1285 26.074 10.1285 25.1401C9.28906 25.1401 8.48276 25.151 7.67645 25.1401C6.3952 25.1293 5.27963 24.228 5.04768 23.0226C4.79364 21.7521 5.42322 20.5141 6.62716 20.0255C7.01374 19.8734 7.45555 19.8083 7.87527 19.7866C8.62635 19.754 9.37743 19.7757 10.1395 19.7757C10.1395 17.669 10.1395 15.6167 10.1395 13.4991C8.42753 13.4991 6.74865 13.4991 5.08082 13.4991C5.08082 12.8584 5.08082 12.2612 5.08082 11.6531C6.7597 11.6639 8.42753 11.6639 10.1285 11.6639ZM31.0482 27.9201C31.2139 27.9201 31.3354 27.9201 31.4569 27.9201C33.8316 27.9201 36.1953 27.9201 38.57 27.9201C39.0892 27.9201 39.1002 27.9092 39.1002 27.3988C39.1002 20.4707 39.1002 13.5534 39.1002 6.62527C39.1002 6.10403 39.0892 6.09317 38.5811 6.09317C36.2064 6.09317 33.8427 6.09317 31.4679 6.09317C31.3354 6.09317 31.2029 6.10403 31.0482 6.11489C31.0482 7.97181 31.0482 9.79615 31.0482 11.6639C32.6829 11.6639 34.3066 11.6639 35.9413 11.6639C35.9413 12.3046 35.9413 12.891 35.9413 13.5317C34.3066 13.5317 32.6829 13.5317 31.0482 13.5317C31.0482 15.6384 31.0482 17.6907 31.0482 19.7866C31.8103 19.7866 32.5504 19.7757 33.2904 19.7866C35.0687 19.8191 36.3168 21.3394 35.9634 23.0335C35.7204 24.2171 34.6379 25.1075 33.4009 25.1401C32.6166 25.151 31.8435 25.1401 31.0372 25.1401C31.0482 26.0849 31.0482 26.9753 31.0482 27.9201ZM10.1285 21.6435C9.27802 21.6435 8.48276 21.6326 7.6875 21.6435C7.23464 21.6543 6.90329 21.991 6.87015 22.4036C6.83702 22.7728 7.12419 23.2181 7.49973 23.2398C8.37231 23.2724 9.24488 23.2506 10.1285 23.2506C10.1285 22.7077 10.1285 22.1973 10.1285 21.6435ZM31.0482 21.6435C31.0482 22.2082 31.0482 22.7294 31.0482 23.2724C31.8214 23.2724 32.5614 23.2832 33.3015 23.2724C33.7764 23.2615 34.1188 22.9249 34.1298 22.4905C34.1409 22.0453 33.7874 21.6652 33.3125 21.6543C32.5725 21.6326 31.8324 21.6435 31.0482 21.6435Z" fill="#121212"/>
<path d="M20.3993 22.2841C21.2498 22.2841 22.1113 22.2733 22.9618 22.2841C24.6517 22.3058 25.944 23.5546 25.9992 25.2052C26.0544 26.7907 24.8174 28.1806 23.1495 28.2458C21.3271 28.311 19.4825 28.311 17.6601 28.2458C15.948 28.1806 14.7441 26.8232 14.7883 25.1401C14.8325 23.5546 16.1689 22.3058 17.8368 22.2841C18.6873 22.2733 19.5377 22.2841 20.3993 22.2841ZM20.3661 26.4215C21.1724 26.4215 21.9898 26.4323 22.7961 26.4215C23.5803 26.4106 24.1215 25.9328 24.1105 25.2595C24.0994 24.5971 23.5803 24.1519 22.8071 24.141C21.1945 24.1302 19.593 24.141 17.9804 24.141C17.7926 24.141 17.5938 24.1628 17.4171 24.2171C16.8869 24.4017 16.5997 24.9229 16.6991 25.4876C16.7875 26.0088 17.2514 26.3997 17.8478 26.4106C18.6873 26.4323 19.5267 26.4106 20.3661 26.4215Z" fill="#121212"/>
</svg>
