<svg width="16" height="9" viewBox="0 0 16 9" fill="none" xmlns="http://www.w3.org/2000/svg">
<path d="M11.7327 8.49999H0.517315C0.50942 8.48888 0.5 8.46819 0.5 8.41968C0.5 8.37022 0.509773 8.35045 0.517121 8.34053H11.7315C11.7405 8.3536 11.7498 8.37544 11.75 8.42289C11.7502 8.46875 11.7413 8.48831 11.7327 8.49999ZM4.26695 0.5H15.4827C15.4906 0.51111 15.5 0.531802 15.5 0.580309C15.5 0.629773 15.4902 0.649539 15.4829 0.659459H4.26757C4.25947 0.647487 4.25019 0.625579 4.25 0.577124C4.24979 0.527197 4.25989 0.508948 4.26695 0.5ZM13.5991 4.57915H2.38232C2.37482 4.56849 2.3658 4.54835 2.366 4.50086C2.36618 4.45439 2.37459 4.43251 2.38189 4.42085H13.5987C13.6062 4.43151 13.6152 4.45165 13.615 4.49913C13.6148 4.54561 13.6064 4.56749 13.5991 4.57915Z" fill="white" stroke="#121212"/>
</svg>
