<svg width="18" height="18" viewBox="0 0 18 18" fill="none" xmlns="http://www.w3.org/2000/svg">
<path d="M8.99923 13.523H9C9.19981 13.523 9.372 13.4544 9.50971 13.3167L9.50991 13.3165C9.6468 13.1788 9.715 13.0071 9.715 12.808C9.715 12.6087 9.64635 12.4367 9.50891 12.2985C9.37122 12.16 9.19918 12.0912 8.99962 12.092C8.80066 12.0928 8.62906 12.1613 8.49149 12.2981C8.35352 12.4353 8.285 12.6076 8.285 12.808C8.285 13.0084 8.35353 13.1805 8.49169 13.3171C8.6292 13.4531 8.80058 13.5215 8.99923 13.523ZM8.4 10.462V10.562H8.5H9.5H9.6V10.462V4.384V4.284H9.5H8.5H8.4V4.384V10.462ZM5.60236 17.0708L5.63164 17.1H5.673H12.336H12.3775L12.4068 17.0706L17.0708 12.3976L17.1 12.3684V12.327V5.664V5.62252L17.0706 5.59322L12.3976 0.929221L12.3684 0.9H12.327H5.664H5.62252L5.59322 0.929358L0.929221 5.60236L0.9 5.63164V5.673V12.336V12.3775L0.929358 12.4068L5.60236 17.0708ZM15.9 11.8586L11.8586 15.9H6.14142L2.1 11.8586V6.14142L6.14142 2.1H11.8586L15.9 6.14142V11.8586Z" fill="#121212" stroke="#121212" stroke-width="0.2"/>
</svg>
