<svg width="25" height="19" viewBox="0 0 25 19" fill="none" xmlns="http://www.w3.org/2000/svg">
<g clip-path="url(#clip0_411_567)">
<path d="M24.5876 17.029C24.4429 17.3904 24.3508 17.778 24.1403 18.0934C23.772 18.6518 23.2063 18.9474 22.5419 18.9737C21.917 19 21.2921 19.0066 20.6738 18.9474C19.7068 18.8555 18.8977 17.9948 18.8319 17.029C18.8056 16.6086 18.8254 16.1881 18.8254 15.7545C14.4576 15.7545 10.1294 15.7545 5.77479 15.7545C5.77479 16.0896 5.78137 16.4115 5.77479 16.74C5.76163 17.6597 5.36696 18.3496 4.53156 18.7635C4.32765 18.862 4.09742 18.9474 3.87377 18.954C3.24229 18.9803 2.60424 19.0263 1.97933 18.9606C0.808466 18.8489 0.0125385 17.9554 0.00596062 16.786C-0.00719521 14.3157 -0.00719521 11.8454 0.00596062 9.37517C0.0125385 8.5408 0.315123 7.78527 0.959758 7.25311C1.62413 6.70781 2.0188 6.04426 2.2885 5.24274C2.7029 4.00104 3.18967 2.78562 3.64355 1.55705C4.03164 0.519018 4.78152 0 5.89977 0C10.2807 0 14.655 0 19.0359 0C20.1409 0 20.904 0.525588 21.2855 1.56362C21.8578 3.10754 22.4301 4.64488 23.0089 6.18223C23.0879 6.38589 23.2128 6.57642 23.3575 6.74066C23.7128 7.13485 24.1074 7.48963 24.3048 7.9955C24.4166 8.28458 24.4955 8.58022 24.5876 8.87586C24.5876 11.5958 24.5876 14.3091 24.5876 17.029ZM12.3001 14.6902C14.8655 14.6902 17.4374 14.6902 20.0028 14.6902C20.8119 14.6902 21.621 14.6967 22.4301 14.6836C23.0747 14.6705 23.5352 14.1843 23.5352 13.5405C23.5352 12.1345 23.5417 10.7286 23.5286 9.32261C23.5286 9.11895 23.4891 8.90871 23.4431 8.71162C23.3247 8.17289 22.9102 7.83783 22.5682 7.44364C22.4432 7.2991 22.3117 7.24654 22.1143 7.24654C15.6548 7.25311 9.20188 7.25311 2.74237 7.25311C2.69633 7.25311 2.6437 7.23997 2.59766 7.25311C2.5253 7.27282 2.43979 7.29253 2.38716 7.33852C2.14378 7.55532 1.90698 7.78527 1.67017 8.01521C1.22945 8.43568 1.04527 8.96127 1.04527 9.5657C1.04527 10.86 1.04527 12.1542 1.04527 13.4485C1.04527 13.5733 1.05185 13.7047 1.07816 13.8295C1.2163 14.3945 1.65044 14.6902 2.32139 14.6902C5.65639 14.6902 8.97823 14.6902 12.3001 14.6902ZM3.04496 6.17566C6.56414 6.17566 10.0504 6.17566 13.5301 6.17566C13.8854 4.26383 15.418 3.18638 16.9638 3.12068C17.7926 3.08783 18.5425 3.31777 19.2135 3.80394C20.0225 4.38866 20.4896 5.19018 20.6606 6.17566C21.0619 6.17566 21.4565 6.17566 21.8644 6.17566C21.838 6.09682 21.8249 6.03112 21.7986 5.96542C21.2921 4.60546 20.7856 3.2455 20.2791 1.88555C20.062 1.30083 19.7002 1.05118 19.0819 1.05118C14.6681 1.05118 10.2478 1.05118 5.83399 1.05118C5.21567 1.05118 4.86046 1.30083 4.63681 1.88555C4.38027 2.57538 4.12373 3.25864 3.86719 3.94848C3.60408 4.6843 3.32781 5.42012 3.04496 6.17566ZM4.70917 15.7414C4.38685 15.7414 4.08427 15.7545 3.78168 15.7414C2.87393 15.6954 1.94644 15.9122 1.065 15.4654C1.065 15.9647 1.04527 16.4443 1.07158 16.9239C1.09789 17.4692 1.56493 17.916 2.10431 17.9357C2.63055 17.9554 3.15678 17.9554 3.68301 17.9357C4.18293 17.916 4.64339 17.5218 4.69601 17.0356C4.74206 16.6151 4.70917 16.1947 4.70917 15.7414ZM19.8778 15.7414C19.8778 16.1618 19.8581 16.5494 19.8844 16.9305C19.9239 17.4889 20.3843 17.9225 20.9435 17.9423C21.4434 17.9554 21.9499 17.9554 22.4564 17.9423C22.9958 17.9291 23.476 17.5218 23.5154 16.9831C23.5549 16.4837 23.522 15.9844 23.522 15.4851C23.3049 15.5574 23.0944 15.6625 22.8839 15.6822C22.3972 15.7282 21.9104 15.7282 21.4236 15.7414C20.9171 15.7479 20.4041 15.7414 19.8778 15.7414ZM19.5752 6.18223C19.3384 4.97994 18.2597 4.14557 16.9967 4.17185C15.8653 4.19813 14.7865 5.10477 14.6221 6.18223C16.2666 6.18223 17.911 6.18223 19.5752 6.18223Z" fill="#13204D"/>
<path d="M4.97134 9.34251C5.5765 9.34251 6.18825 9.34251 6.79342 9.34251C7.26703 9.34251 7.45121 9.51989 7.45779 9.98635C7.45779 10.8142 7.45779 11.6485 7.45779 12.4763C7.45779 12.9099 7.26703 13.107 6.83289 13.1136C5.58308 13.1202 4.33986 13.1202 3.09005 13.1136C2.67565 13.1136 2.47173 12.9099 2.47173 12.4895C2.46515 11.642 2.46515 10.7944 2.47173 9.94693C2.47831 9.53303 2.68222 9.34251 3.10321 9.33594C3.72811 9.34251 4.34644 9.34908 4.97134 9.34251ZM3.53077 12.0493C4.50431 12.0493 5.44495 12.0493 6.39217 12.0493C6.39217 11.4908 6.39217 10.9521 6.39217 10.4134C5.43179 10.4134 4.48457 10.4134 3.53077 10.4134C3.53077 10.9653 3.53077 11.4974 3.53077 12.0493Z" fill="#13204D"/>
<path d="M19.6215 9.3418C20.2398 9.3418 20.8515 9.3418 21.4699 9.3418C21.9237 9.3418 22.1211 9.53232 22.1277 9.9725C22.1342 10.8134 22.1342 11.6478 22.1277 12.4888C22.1211 12.9092 21.9237 13.1129 21.5093 13.1129C20.2595 13.1195 19.0163 13.1195 17.7665 13.1129C17.3324 13.1129 17.1416 12.9158 17.1416 12.4756C17.135 11.6478 17.1416 10.8134 17.1416 9.98564C17.1416 9.51918 17.3258 9.3418 17.806 9.3418C18.4046 9.3418 19.0097 9.3418 19.6215 9.3418ZM18.1941 12.0551C19.1544 12.0551 20.1017 12.0551 21.0555 12.0551C21.0555 11.4967 21.0555 10.958 21.0555 10.4127C20.0951 10.4127 19.1479 10.4127 18.1941 10.4127C18.1941 10.9645 18.1941 11.5033 18.1941 12.0551Z" fill="#13204D"/>
<path d="M12.2857 10.9711C11.5029 10.9711 10.7201 10.9711 9.93734 10.9711C9.81236 10.9711 9.6808 10.958 9.5624 10.9185C9.36506 10.8528 9.22035 10.6098 9.24008 10.4061C9.26639 10.1696 9.39795 10.0119 9.62818 9.93963C9.6808 9.92649 9.74 9.91992 9.79263 9.91992C11.4568 9.91992 13.121 9.91992 14.7787 9.91992C15.0681 9.91992 15.2523 10.0579 15.3181 10.301C15.397 10.59 15.2326 10.8725 14.9366 10.9382C14.8379 10.958 14.7326 10.9645 14.6274 10.9711C13.8578 10.9711 13.075 10.9711 12.2857 10.9711Z" fill="#13204D"/>
<path d="M12.3131 11.5507C13.1288 11.5507 13.9444 11.5441 14.7601 11.5507C15.1943 11.5573 15.4639 11.8726 15.3127 12.2274C15.2535 12.3654 15.089 12.4771 14.9509 12.5625C14.8719 12.6085 14.747 12.5953 14.6483 12.5953C13.0893 12.5953 11.5304 12.5953 9.97139 12.5953C9.49778 12.5953 9.22151 12.3982 9.24782 12.0566C9.26755 11.7938 9.40569 11.5244 9.97139 11.5376C10.7476 11.5639 11.5304 11.5507 12.3131 11.5507Z" fill="#13204D"/>
</g>
<defs>
<clipPath id="clip0_411_567">
<rect width="24.5882" height="19" fill="white"/>
</clipPath>
</defs>
</svg>
