<svg width="25" height="28" viewBox="0 0 25 28" fill="none" xmlns="http://www.w3.org/2000/svg">
<g clip-path="url(#clip0_411_554)">
<path d="M20.709 -0.000520832C20.8837 -0.000520832 21.0584 -0.000520832 21.2331 -0.000520832C21.8899 0.225521 22.2951 0.670313 22.3231 1.42135C22.33 1.57448 22.3231 1.7276 22.3231 1.88802C22.4069 1.9099 22.4698 1.93177 22.5397 1.94635C23.993 2.30365 24.9921 3.5724 24.9991 5.13281C25.0061 11.6807 25.0131 18.2286 24.9921 24.7766C24.9921 25.9505 24.4751 26.8839 23.5039 27.4964C23.1336 27.7297 22.6864 27.8391 22.2811 27.9995C15.7621 27.9995 9.24312 27.9995 2.71713 27.9995C2.66123 27.9776 2.60533 27.9557 2.54944 27.9412C1.11707 27.6495 0.0131021 26.3589 0.00611493 24.8568C-0.00785935 18.2432 -0.00087221 11.6297 0.00611493 5.01615C0.00611493 4.20677 0.313549 3.49219 0.844572 2.89427C1.33367 2.3401 1.94854 2.02656 2.66822 1.88802C2.66822 1.75677 2.66822 1.6401 2.66822 1.52344C2.66123 1.16615 2.73809 0.838021 2.94072 0.546354C3.14334 0.254688 3.44379 0.116146 3.75821 -0.0078125C3.93289 -0.0078125 4.10757 -0.0078125 4.28225 -0.0078125C4.31718 0.0140625 4.35212 0.0359375 4.39404 0.0505208C4.98096 0.261979 5.31634 0.721354 5.34429 1.37031C5.35128 1.52344 5.34429 1.67656 5.34429 1.82969C6.25262 1.82969 7.133 1.82969 8.03434 1.82969C8.03434 1.70573 8.03434 1.61094 8.03434 1.50885C8.02037 1.14427 8.07627 0.779688 8.33479 0.524479C8.55139 0.305729 8.83786 0.167188 9.09639 -0.0078125C9.27107 -0.0078125 9.44575 -0.0078125 9.62043 -0.0078125C10.5008 0.269271 10.7943 0.940104 10.7104 1.83698C11.9192 1.83698 13.093 1.83698 14.2878 1.83698C14.2878 1.62552 14.2669 1.43594 14.2878 1.24635C14.3717 0.568229 14.7769 0.189063 15.3708 -0.0078125C15.5455 -0.0078125 15.7202 -0.0078125 15.8949 -0.0078125C15.9228 0.00677084 15.9508 0.0359375 15.9787 0.0432292C16.6215 0.276563 16.943 0.735938 16.9499 1.45781C16.9499 1.58177 16.9499 1.70573 16.9499 1.84427C17.8583 1.84427 18.7317 1.84427 19.633 1.84427C19.633 1.71302 19.633 1.59635 19.633 1.47969C19.626 1.12969 19.6749 0.786979 19.9195 0.546354C20.157 0.327604 20.4435 0.181771 20.709 -0.000520832ZM0.893482 7.00677C0.893482 7.12344 0.893482 7.21094 0.893482 7.30573C0.893482 13.0661 0.893482 18.8266 0.893482 24.587C0.893482 26.0818 1.84373 27.0734 3.26911 27.0734C9.42478 27.0734 15.5735 27.0734 21.7291 27.0734C23.1545 27.0734 24.1048 26.0818 24.1048 24.587C24.1048 18.8266 24.1048 13.0661 24.1048 7.30573C24.1048 7.21094 24.1048 7.11615 24.1048 7.01406C16.356 7.00677 8.64223 7.00677 0.893482 7.00677ZM24.0768 6.05886C24.3214 4.11198 23.448 3.09844 22.3231 2.8724C22.3231 2.99635 22.3231 3.11302 22.3231 3.22969C22.3021 4.06094 21.7361 4.66615 20.9745 4.65885C20.2269 4.65885 19.6679 4.06094 19.64 3.24427C19.633 3.09844 19.64 2.9599 19.64 2.81406C18.7247 2.81406 17.8513 2.81406 16.9569 2.81406C16.9569 2.96719 16.9569 3.10573 16.9569 3.23698C16.943 4.05365 16.384 4.65156 15.6294 4.65156C14.8678 4.65156 14.2948 4.04635 14.2809 3.2224C14.2809 3.08385 14.2809 2.93802 14.2809 2.79948C13.0721 2.79948 11.9052 2.79948 10.7174 2.79948C10.7174 2.97448 10.7244 3.1349 10.7174 3.3026C10.6825 4.07552 10.1025 4.65156 9.37588 4.65156C8.64223 4.65156 8.07627 4.06823 8.04832 3.28802C8.04133 3.1276 8.04832 2.96719 8.04832 2.80677C7.133 2.80677 6.25961 2.80677 5.3932 2.80677C5.35827 3.11302 5.37224 3.42656 5.28141 3.68177C5.18359 3.93698 5.0159 4.20677 4.80628 4.36719C4.59667 4.52761 4.30321 4.59323 4.0377 4.63698C3.71629 4.68802 3.42283 4.54219 3.17129 4.32344C2.7311 3.94427 2.66123 3.41927 2.68219 2.83594C2.57738 2.8651 2.48655 2.88698 2.40969 2.91615C1.05419 3.44844 0.753739 4.68802 0.942392 6.04427C8.64223 6.05886 16.356 6.05886 24.0768 6.05886ZM16.0626 2.3474C16.0626 2.04844 16.0696 1.74948 16.0626 1.45052C16.0556 1.14427 15.8879 0.947396 15.6364 0.940104C15.3848 0.932813 15.1822 1.12969 15.1752 1.42865C15.1682 2.03385 15.1682 2.64635 15.1752 3.25156C15.1822 3.55052 15.3708 3.7401 15.6364 3.73281C15.8949 3.72552 16.0556 3.54323 16.0626 3.2224C16.0696 2.92344 16.0626 2.63906 16.0626 2.3474ZM8.93569 2.32552C8.93569 2.62448 8.9287 2.92344 8.93569 3.2224C8.94267 3.53594 9.10338 3.71823 9.36889 3.72552C9.62741 3.73281 9.81607 3.54323 9.82305 3.23698C9.83004 2.63177 9.83004 2.01927 9.82305 1.41406C9.81607 1.1224 9.60645 0.925521 9.3619 0.932813C9.11735 0.940104 8.94267 1.13698 8.94267 1.42135C8.9287 1.72031 8.93569 2.02656 8.93569 2.32552ZM4.45693 2.3474C4.45693 2.04115 4.46391 1.7276 4.45693 1.42135C4.44994 1.12969 4.26827 0.940104 4.02372 0.940104C3.77917 0.932813 3.57655 1.1224 3.57655 1.40677C3.56257 2.02656 3.56257 2.64635 3.57655 3.26615C3.58353 3.55781 3.77219 3.73281 4.02372 3.73281C4.27526 3.73281 4.44994 3.55052 4.45693 3.25885C4.46391 2.94531 4.45693 2.64635 4.45693 2.3474ZM20.5343 2.3401C20.5343 2.63177 20.5274 2.92344 20.5343 3.2151C20.5413 3.53594 20.702 3.71823 20.9606 3.72552C21.2331 3.73281 21.4147 3.53594 21.4217 3.2151C21.4287 2.62448 21.4287 2.03385 21.4217 1.43594C21.4147 1.12969 21.2261 0.932813 20.9745 0.932813C20.723 0.932813 20.5413 1.12969 20.5343 1.43594C20.5274 1.7349 20.5343 2.04115 20.5343 2.3401Z" fill="#13204D"/>
<path d="M19.6402 17.7257C19.6402 17.8569 19.6402 17.9517 19.6402 18.0538C19.6402 18.8194 19.6402 19.585 19.6402 20.3507C19.6402 21.2913 19.214 21.809 18.2987 21.9475C18.2987 22.4944 18.2987 23.0486 18.2987 23.6027C18.2987 24.3392 17.9284 24.7257 17.2157 24.7257C16.8593 24.7257 16.503 24.7329 16.1466 24.7257C15.5737 24.7184 15.1824 24.31 15.1754 23.7048C15.1684 23.1434 15.1684 22.5746 15.1684 22.0132C15.1684 21.9986 15.1615 21.9767 15.1475 21.9475C13.3867 21.9475 11.626 21.9475 9.82328 21.9475C9.82328 22.4944 9.82328 23.0413 9.82328 23.5809C9.82328 23.7267 9.81629 23.8725 9.78834 24.0111C9.69751 24.4267 9.3761 24.7038 8.96386 24.7184C8.53065 24.7329 8.09046 24.7257 7.65726 24.7257C7.05637 24.7184 6.70002 24.3465 6.69304 23.7194C6.69304 23.1288 6.69304 22.5382 6.69304 21.9548C5.7358 21.7725 5.3515 21.2986 5.3515 20.3069C5.3515 19.5632 5.3515 18.8121 5.3515 18.0684C5.3515 17.9663 5.3515 17.8715 5.3515 17.7329C5.16984 17.7329 5.01612 17.7402 4.8624 17.7329C4.38728 17.7111 4.03093 17.3319 4.01696 16.8361C4.00997 16.5152 4.00997 16.2017 4.01696 15.8809C4.02395 15.3413 4.39427 14.9548 4.91131 14.9475C5.50522 14.9402 6.09913 14.9329 6.68605 14.9475C6.88169 14.9548 6.97951 14.8892 7.04938 14.6996C7.42669 13.7225 7.81797 12.7454 8.20925 11.7757C8.50969 11.0173 8.91495 10.7402 9.69751 10.7402C11.5631 10.7402 13.4286 10.7402 15.2942 10.7402C16.0628 10.7402 16.468 11.0246 16.7615 11.7684C17.1458 12.7309 17.5371 13.7007 17.9144 14.6704C17.9912 14.8746 18.0821 14.9621 18.3057 14.9548C18.8716 14.9329 19.4376 14.9475 20.0035 14.9475C20.5975 14.9475 20.9608 15.334 20.9608 15.9538C20.9608 16.2382 20.9678 16.5225 20.9608 16.7996C20.9538 17.3465 20.5905 17.7184 20.0734 17.7402C19.9476 17.7329 19.8079 17.7257 19.6402 17.7257ZM17.6139 16.3257C17.579 16.2309 17.565 16.1725 17.5371 16.1142C17.0061 14.7725 16.4611 13.4309 15.937 12.0819C15.8182 11.7757 15.6296 11.659 15.3152 11.659C13.4356 11.6663 11.5561 11.6663 9.66956 11.659C9.34815 11.659 9.1595 11.7902 9.04072 12.1038C8.52367 13.4236 7.99264 14.7434 7.46861 16.0559C7.43367 16.1361 7.41271 16.2236 7.37778 16.3257C10.8015 16.3257 14.1902 16.3257 17.6139 16.3257ZM12.4994 17.2736C10.6058 17.2736 8.71931 17.2736 6.82579 17.2736C6.39957 17.2736 6.25285 17.4194 6.25285 17.8569C6.25285 18.7027 6.25285 19.5486 6.25285 20.4017C6.25285 20.8538 6.39958 21.0069 6.83977 21.0069C10.6128 21.0069 14.3859 21.0069 18.1589 21.0069C18.5921 21.0069 18.7459 20.8538 18.7459 20.4017C18.7459 19.5923 18.7459 18.7829 18.7459 17.9663C18.7459 17.3902 18.6341 17.2736 18.0961 17.2736C16.2305 17.2736 14.3649 17.2736 12.4994 17.2736ZM8.91495 23.785C8.91495 23.1507 8.91495 22.5454 8.91495 21.9548C8.46777 21.9548 8.03457 21.9548 7.60835 21.9548C7.60835 22.5746 7.60835 23.1798 7.60835 23.785C8.04854 23.785 8.47476 23.785 8.91495 23.785ZM17.3973 23.7777C17.3973 23.1434 17.3973 22.5527 17.3973 21.9475C16.9502 21.9475 16.517 21.9475 16.0838 21.9475C16.0838 22.5673 16.0838 23.1725 16.0838 23.7777C16.5309 23.7777 16.9571 23.7777 17.3973 23.7777ZM4.92529 16.7777C5.83362 16.8652 6.46246 16.5079 6.53932 15.8809C6.0083 15.8809 5.47029 15.8809 4.92529 15.8809C4.92529 16.1871 4.92529 16.4715 4.92529 16.7777ZM18.4454 15.8663C18.5991 16.5444 19.2769 16.9163 20.0664 16.7632C20.0664 16.4715 20.0664 16.1798 20.0664 15.8736C20.0105 15.8663 19.9686 15.8663 19.9267 15.8663C19.4376 15.8663 18.9555 15.8663 18.4454 15.8663Z" fill="#13204D"/>
<path d="M8.26527 20.5395C7.84604 20.5541 7.47572 20.4228 7.1613 20.1239C6.59534 19.5843 6.5674 18.7968 7.09143 18.2134C7.68534 17.5572 8.83822 17.5426 9.41815 18.2062C9.73257 18.5634 9.92123 18.9791 9.75353 19.4749C9.56488 20.0364 9.18758 20.3791 8.6286 20.503C8.50982 20.5322 8.38405 20.5249 8.26527 20.5395ZM8.25828 19.5916C8.62162 19.5916 8.92905 19.3728 8.92905 19.1249C8.92905 18.8843 8.62162 18.6728 8.27925 18.6655C7.93688 18.6582 7.60149 18.877 7.59451 19.1249C7.58053 19.3728 7.89495 19.5916 8.25828 19.5916Z" fill="#13204D"/>
<path d="M16.7255 20.5395C16.2853 20.5467 15.901 20.4009 15.5935 20.0728C15.0695 19.5259 15.0625 18.7895 15.5586 18.2207C16.1455 17.5499 17.3194 17.5426 17.9063 18.2207C18.2207 18.578 18.3954 19.0009 18.2207 19.4967C18.0251 20.0582 17.6478 20.4009 17.0888 20.5103C16.97 20.5322 16.8512 20.5322 16.7255 20.5395ZM16.7324 19.5915C17.0958 19.5915 17.4032 19.3801 17.4102 19.1322C17.4102 18.8842 17.0888 18.6582 16.7394 18.6655C16.3831 18.6655 16.0687 18.8988 16.0756 19.1467C16.0826 19.3874 16.3831 19.5915 16.7324 19.5915Z" fill="#13204D"/>
<path d="M12.4918 19.5918C12.2053 19.5918 11.9189 19.5991 11.6324 19.5918C11.3529 19.5845 11.1713 19.4022 11.1643 19.147C11.1573 18.8918 11.332 18.6803 11.6045 18.673C12.1984 18.6585 12.7923 18.6585 13.3792 18.673C13.6517 18.6803 13.8334 18.8845 13.8334 19.1397C13.8334 19.4095 13.6447 19.5845 13.3512 19.5991C13.3373 19.5991 13.3163 19.5991 13.3023 19.5991C13.0298 19.5918 12.7573 19.5918 12.4918 19.5918Z" fill="#13204D"/>
</g>
<defs>
<clipPath id="clip0_411_554">
<rect width="25" height="28" fill="white"/>
</clipPath>
</defs>
</svg>
