<svg width="25" height="20" viewBox="0 0 25 20" fill="none" xmlns="http://www.w3.org/2000/svg">
<g clip-path="url(#clip0_411_542)">
<path d="M24.7076 7.58024C24.6496 7.9161 24.598 8.25854 24.5206 8.5944C23.747 12.0188 20.5814 14.3369 17.1579 13.955C16.5905 13.8891 16.036 13.6915 15.4751 13.5664C15.3784 13.5467 15.2559 13.5467 15.1657 13.5928C14.7982 13.7771 14.4371 13.9747 14.0761 14.1723C13.8827 14.2776 13.6957 14.2974 13.5087 14.1657C13.3218 14.0274 13.2895 13.8298 13.3282 13.6125C13.3798 13.2898 13.4314 12.9606 13.4958 12.6445C13.5281 12.493 13.4958 12.3942 13.3798 12.2823C11.3231 10.3461 10.5494 7.95562 11.278 5.19631C12.0194 2.3975 13.8891 0.672112 16.6808 0.12552C20.5491 -0.62522 24.2627 2.24603 24.6625 6.23023C24.6689 6.30267 24.6947 6.37511 24.7076 6.44755C24.7076 6.82292 24.7076 7.19829 24.7076 7.58024ZM14.4049 12.8288C14.4242 12.8288 14.45 12.8354 14.4694 12.8354C14.6112 12.763 14.753 12.6971 14.8884 12.6115C15.1399 12.4403 15.3849 12.4469 15.6621 12.5654C16.5841 12.9606 17.5447 13.0791 18.544 12.9671C21.7999 12.6049 24.1789 9.45051 23.6825 6.13145C23.1087 2.23945 19.1759 -0.0391157 15.6041 1.44919C11.6326 3.10214 10.7235 8.60757 13.96 11.4722C14.392 11.8542 14.7015 12.2032 14.4049 12.8288Z" fill="#13204D"/>
<path d="M6.27394 19.9932C4.41068 19.9932 2.54743 19.9932 0.677721 19.9932C0.136152 19.9932 -0.0121351 19.8417 0.000759423 19.2885C0.0523375 16.3448 2.27019 13.7041 5.11343 13.197C8.54337 12.5911 11.6703 14.705 12.4182 18.1492C12.5084 18.5641 12.5278 18.9922 12.5536 19.4202C12.5729 19.8022 12.3859 19.9866 11.9927 19.9866C11.1803 19.9932 10.3679 19.9866 9.55559 19.9866C8.45956 19.9932 7.36997 19.9932 6.27394 19.9932ZM11.5607 18.9922C11.406 16.4963 9.18165 13.9148 5.97092 14.0926C2.9665 14.2638 1.09035 16.8585 1.01943 18.9922C4.53318 18.9922 8.04694 18.9922 11.5607 18.9922Z" fill="#13204D"/>
<path d="M6.2867 12.3886C4.21068 12.3886 2.52795 10.6698 2.5215 8.54268C2.51506 6.42217 4.21068 4.6902 6.27381 4.68361C8.33693 4.67703 10.0326 6.41559 10.0326 8.5361C10.039 10.6632 8.36272 12.382 6.2867 12.3886ZM6.27381 11.4008C7.8147 11.4074 9.07191 10.1298 9.07191 8.55585C9.07836 6.96876 7.82115 5.67143 6.28025 5.67143C4.75225 5.67143 3.49504 6.96218 3.48859 8.5361C3.48214 10.1034 4.73291 11.3942 6.27381 11.4008Z" fill="#13204D"/>
<path d="M19.3098 8.95094C19.3098 9.6029 19.3098 10.2483 19.3098 10.9002C19.3098 11.3217 19.1486 11.4929 18.7489 11.4995C18.1557 11.5061 17.5626 11.5061 16.963 11.4995C16.5955 11.4929 16.415 11.3085 16.415 10.9332C16.415 9.6029 16.4085 8.26606 16.415 6.9358C16.415 6.5736 16.5955 6.38262 16.9436 6.37603C17.5561 6.36945 18.1622 6.36945 18.7747 6.37603C19.1357 6.38262 19.3033 6.56042 19.3033 6.92921C19.3098 7.60093 19.3098 8.27923 19.3098 8.95094ZM17.395 7.37702C17.395 8.42411 17.395 9.45144 17.395 10.4919C17.7173 10.4919 18.0203 10.4919 18.3298 10.4919C18.3298 9.44485 18.3298 8.41094 18.3298 7.37702C18.0074 7.37702 17.7044 7.37702 17.395 7.37702Z" fill="#13204D"/>
<path d="M17.8656 5.50581C17.5497 5.50581 17.2402 5.51239 16.9243 5.50581C16.6149 5.49922 16.4214 5.31483 16.415 4.99873C16.4085 4.34677 16.4085 3.70139 16.415 3.04943C16.4214 2.75309 16.6149 2.55553 16.9114 2.54894C17.5497 2.53577 18.1815 2.53577 18.8198 2.54894C19.1293 2.55553 19.3098 2.75309 19.3098 3.06919C19.3163 3.70798 19.3163 4.35335 19.3098 4.99214C19.3098 5.30824 19.1228 5.49264 18.8069 5.49922C18.491 5.51239 18.1751 5.50581 17.8656 5.50581ZM17.3885 3.54334C17.3885 3.8792 17.3885 4.18213 17.3885 4.50482C17.7109 4.50482 18.0139 4.50482 18.3234 4.50482C18.3234 4.17555 18.3234 3.85944 18.3234 3.54334C18.0075 3.54334 17.7109 3.54334 17.3885 3.54334Z" fill="#13204D"/>
</g>
<defs>
<clipPath id="clip0_411_542">
<rect width="24.7059" height="20" fill="white"/>
</clipPath>
</defs>
</svg>
