<svg width="24" height="25" viewBox="0 0 24 25" fill="none" xmlns="http://www.w3.org/2000/svg">
<path d="M23.9995 19.2423C23.9995 20.3174 23.9995 21.3925 23.9995 22.4764C23.9911 24.0097 23.0618 24.9878 21.5835 24.9966C19.5222 25.0054 17.4694 25.0054 15.4082 24.9966C13.9045 24.9878 12.9752 24.0009 12.9668 22.4323C12.9668 20.3086 12.9668 18.1937 12.9668 16.0699C12.9668 14.5014 13.9129 13.5144 15.4251 13.5144C17.4694 13.5056 19.5222 13.5056 21.5666 13.5144C23.0534 13.5144 23.9911 14.5014 23.9995 16.0523C24.008 17.1098 23.9995 18.176 23.9995 19.2423ZM18.4832 14.8627C17.4356 14.8627 16.3966 14.8627 15.3491 14.8627C14.6563 14.8627 14.2762 15.2592 14.2762 15.9906C14.2762 18.1672 14.2762 20.3438 14.2762 22.5204C14.2762 23.2342 14.6732 23.6396 15.3575 23.6396C17.4356 23.6396 19.5138 23.6396 21.6004 23.6396C22.3184 23.6396 22.707 23.2342 22.707 22.4764C22.707 20.3262 22.707 18.1672 22.707 16.0171C22.707 15.268 22.3269 14.8715 21.6173 14.8715C20.5782 14.8627 19.5307 14.8627 18.4832 14.8627Z" fill="#13204D"/>
<path d="M18.4845 0.00586963C19.5067 0.00586963 20.5288 0.00586963 21.5595 0.00586963C23.08 0.0146817 24.0008 0.975203 24.0093 2.55257C24.0093 4.6763 24.0093 6.79121 24.0093 8.91493C24.0093 10.5099 23.0716 11.4881 21.5426 11.4881C19.5151 11.4881 17.4876 11.4881 15.4602 11.4881C13.9143 11.4881 12.9766 10.5011 12.9766 8.8973C12.9766 6.79121 12.9766 4.6763 12.9766 2.5702C12.9766 0.992828 13.9058 0.0146817 15.418 0.00586963C16.4317 -0.0029425 17.4623 0.00586963 18.4845 0.00586963ZM18.4929 10.131C19.5236 10.131 20.5626 10.131 21.5932 10.131C22.3198 10.131 22.6999 9.73446 22.6999 8.9678C22.6999 6.81764 22.6999 4.65867 22.6999 2.50851C22.6999 1.75067 22.3113 1.35412 21.5848 1.35412C19.5151 1.35412 17.4454 1.35412 15.3757 1.35412C14.6577 1.35412 14.2775 1.74186 14.2691 2.48208C14.2691 4.65867 14.2691 6.83527 14.2691 9.01186C14.2691 9.73446 14.6577 10.131 15.3504 10.131C16.4063 10.131 17.4539 10.131 18.4929 10.131Z" fill="#13204D"/>
<path d="M0 19.2257C0 18.1594 0 17.0931 0 16.0269C0.00844773 14.4936 0.946146 13.5066 2.41605 13.5066C4.4773 13.4978 6.53009 13.4978 8.59134 13.5066C10.0781 13.5066 11.0243 14.5024 11.0327 16.0445C11.0327 18.177 11.0327 20.3096 11.0327 22.4421C11.0327 23.993 10.095 24.9888 8.60824 24.9888C6.53854 24.9976 4.46885 24.9976 2.39915 24.9888C0.946146 24.98 0.00844773 24.0019 0 22.4862C0 21.4023 0 20.3096 0 19.2257ZM5.50792 14.8637C4.4604 14.8637 3.42133 14.8637 2.37381 14.8637C1.6811 14.8637 1.30095 15.269 1.30095 15.9916C1.30095 18.1682 1.30095 20.3448 1.30095 22.5214C1.30095 23.2352 1.69799 23.6406 2.39071 23.6406C4.46885 23.6406 6.54699 23.6406 8.63358 23.6406C9.34319 23.6406 9.73178 23.244 9.73178 22.5038C9.73178 20.336 9.73178 18.177 9.73178 16.0093C9.73178 15.2426 9.36008 14.8637 8.61668 14.8637C7.57761 14.8637 6.53854 14.8637 5.50792 14.8637Z" fill="#13204D"/>
<path d="M0 5.70805C0 4.64179 0 3.57552 0 2.50925C0.00844773 0.984755 0.937698 0.0154212 2.39916 0.00660909C4.4773 -0.00220303 6.55544 -0.00220303 8.64203 0.00660909C10.095 0.0154212 11.0327 1.00238 11.0327 2.51806C11.0412 4.66822 11.0412 6.82719 11.0327 8.97735C11.0327 10.4754 10.0697 11.48 8.62513 11.4888C6.54699 11.4976 4.46885 11.4976 2.38226 11.4888C0.963041 11.48 0.0168955 10.493 0 9.00379C0 7.90227 0 6.80076 0 5.70805ZM9.72334 5.73449C9.72334 4.6506 9.72334 3.5579 9.72334 2.474C9.72334 1.75141 9.33474 1.35486 8.64203 1.35486C6.55544 1.35486 4.4604 1.35486 2.37381 1.35486C1.68955 1.35486 1.30095 1.76022 1.30095 2.48282C1.30095 4.65941 1.30095 6.83601 1.30095 9.0126C1.30095 9.72638 1.69799 10.1317 2.39071 10.1317C4.4773 10.1317 6.57233 10.1317 8.65892 10.1317C9.35164 10.1317 9.73178 9.7352 9.73178 9.00379C9.73178 7.91109 9.72334 6.82719 9.72334 5.73449Z" fill="#13204D"/>
</svg>
