<svg width="23" height="25" viewBox="0 0 23 25" fill="none" xmlns="http://www.w3.org/2000/svg">
<g clip-path="url(#clip0_411_564)">
<path d="M11.5534 0.000651042C13.3833 0.781901 15.2132 1.55664 17.0364 2.35091C17.8226 2.69596 18.1396 3.60091 17.7763 4.37565C17.6046 4.74674 17.3932 5.09831 17.228 5.4694C17.1686 5.5931 17.162 5.74284 17.1686 5.88607C17.1884 6.31575 17.2677 6.74544 17.2412 7.17513C17.228 7.43555 17.1025 7.70898 16.9506 7.93034C16.8317 8.10612 16.7722 8.26237 16.7656 8.46419C16.7194 9.61654 16.541 10.7428 16.138 11.8301C15.8474 12.6113 15.4246 13.3079 14.8631 13.9329C14.7838 14.0176 14.7375 14.1608 14.7309 14.278C14.7177 14.6947 14.7309 15.1048 14.7243 15.5215C14.7243 15.6582 14.764 15.7428 14.8829 15.8145C15.4114 16.127 15.9266 16.4785 16.4683 16.7585C16.792 16.9277 17.162 16.9993 17.5187 17.097C18.2123 17.2988 18.9192 17.4746 19.6128 17.6829C21.37 18.2038 22.5657 19.7272 22.6053 21.5371C22.6251 22.4551 22.6119 23.373 22.6119 24.2975C22.6119 24.6361 22.4005 24.8639 22.0967 24.8639C21.7862 24.8704 21.5616 24.6361 21.5616 24.291C21.555 23.4447 21.5616 22.5983 21.5616 21.752C21.5616 20.222 20.683 19.0697 19.1966 18.6465C18.3973 18.4186 17.5913 18.2103 16.792 17.9759C16.6335 17.9303 16.5608 17.9759 16.4815 18.1061C16.0786 18.7572 15.669 19.4082 15.2594 20.0527C14.8036 20.7754 14.1034 20.9967 13.2974 20.6908C13.0926 20.6126 12.8218 20.8665 12.8482 21.1335C12.9143 21.778 12.9936 22.429 13.0662 23.0736C13.1125 23.4837 13.1455 23.9004 13.2049 24.3105C13.2512 24.6361 13.1455 24.8639 12.8482 25.0072C12.7293 25.0072 12.617 25.0072 12.5047 25.0072C12.3329 24.877 12.1876 24.7337 12.1612 24.4993C12.1282 24.1673 12.0951 23.8353 12.0555 23.5033C11.9894 22.9238 11.9234 22.3444 11.8639 21.804C11.4808 21.804 11.124 21.804 10.7541 21.804C10.6616 22.6374 10.5559 23.4837 10.4767 24.3301C10.4502 24.6296 10.3577 24.8639 10.0737 25.0007C9.9746 25.0007 9.8755 25.0007 9.77641 25.0007C9.45932 24.8509 9.36684 24.61 9.41308 24.2585C9.5452 23.2103 9.65751 22.1556 9.76981 21.1074C9.80284 20.8275 9.51217 20.6126 9.25454 20.7103C8.54769 20.9902 7.81442 20.7559 7.39824 20.1113C6.96885 19.4473 6.54607 18.7767 6.13649 18.0996C6.04401 17.9499 5.96473 17.9238 5.79958 17.9694C4.98704 18.2038 4.16789 18.4186 3.34875 18.653C1.95487 19.0566 1.06306 20.2285 1.05645 21.6673C1.04985 22.5462 1.05645 23.4251 1.05645 24.304C1.05645 24.597 0.878092 24.8053 0.620456 24.8444C0.376033 24.8835 0.13161 24.7467 0.0523378 24.5124C0.0259137 24.4277 0.0193077 24.3366 0.0127016 24.252C0.0127016 23.373 0.00609561 22.4941 0.0127016 21.6152C0.0325197 19.7012 1.28106 18.1257 3.15057 17.6243C4.04899 17.3835 4.94741 17.1361 5.83922 16.8822C5.99116 16.8366 6.1431 16.7585 6.28182 16.6738C6.76406 16.3874 7.23309 16.0879 7.71533 15.8079C7.85406 15.7233 7.92012 15.6322 7.89369 15.4759C7.89369 15.4629 7.89369 15.4434 7.89369 15.4303C7.89369 15.0137 7.97957 14.5775 7.86727 14.1934C7.75497 13.8288 7.43127 13.5293 7.20667 13.1973C6.48661 12.123 6.12328 10.9251 5.95813 9.66211C5.89867 9.21289 5.88546 8.75716 5.83261 8.30143C5.8194 8.19075 5.76655 8.06706 5.69389 7.98242C5.48249 7.73503 5.35037 7.46159 5.36359 7.13607C5.3834 6.71289 5.42965 6.29622 5.44946 5.87305C5.45607 5.73633 5.43625 5.58008 5.3768 5.45638C5.21825 5.11133 5.02668 4.77279 4.86153 4.42773C4.45195 3.5944 4.76904 2.70247 5.62783 2.32487C7.31236 1.58268 9.00351 0.853516 10.6947 0.124349C10.8136 0.0722656 10.9391 0.0332031 11.0646 -0.00585938C11.2231 0.000651042 11.3883 0.000651042 11.5534 0.000651042ZM11.309 5.07878C12.8879 5.07878 14.4601 5.07878 16.0389 5.08529C16.1909 5.08529 16.2767 5.03971 16.3362 4.90299C16.4749 4.60352 16.6401 4.31055 16.792 4.01107C16.9572 3.68555 16.8647 3.41862 16.5278 3.26888C14.8763 2.54622 13.2314 1.83008 11.5733 1.12695C11.4279 1.06185 11.2033 1.06185 11.058 1.12044C9.39987 1.82357 7.75497 2.54622 6.10346 3.26237C5.75334 3.41862 5.66086 3.67904 5.82601 4.01758C5.97134 4.31055 6.12989 4.597 6.26861 4.88997C6.33467 5.0332 6.42055 5.08529 6.5857 5.08529C8.15794 5.07878 9.73017 5.07878 11.309 5.07878ZM6.94903 8.43164C6.92921 8.43815 6.9094 8.44466 6.88958 8.45768C6.9094 8.68555 6.92921 8.9069 6.94243 9.13477C7.08115 11.4525 8.16454 13.2493 10.0671 14.584C10.5493 14.9225 12.0885 14.9551 12.5377 14.5775C13.1521 14.0632 13.7665 13.5358 14.2883 12.9303C15.2396 11.8236 15.5303 10.4629 15.669 9.05664C15.6888 8.85482 15.6954 8.65299 15.7152 8.39258C15.2594 8.82227 14.8631 9.19987 14.4667 9.57747C13.8788 10.1374 13.1785 10.4043 12.366 10.4043C11.7054 10.4043 11.0448 10.3913 10.3842 10.4043C9.45272 10.4303 8.67981 10.1178 8.03242 9.46029C7.6757 9.10872 7.30576 8.77669 6.94903 8.43164ZM11.3288 6.12044C10.9391 6.12044 10.5559 6.12044 10.1662 6.12044C9.01011 6.12044 7.85406 6.12044 6.70461 6.12044C6.53285 6.12044 6.44037 6.15299 6.44697 6.3418C6.44697 6.57617 6.41394 6.81055 6.41394 7.04492C6.41394 7.29232 6.49982 7.37695 6.75746 7.37695C6.98206 7.37695 7.20006 7.37695 7.42467 7.37695C10.2124 7.37695 13.0002 7.37695 15.7879 7.37695C16.1512 7.37695 16.2173 7.31836 16.2107 6.94727C16.2041 6.75846 16.1711 6.57617 16.1777 6.38737C16.1843 6.15299 16.072 6.11393 15.8606 6.11393C14.3478 6.12695 12.835 6.12044 11.3288 6.12044ZM11.3024 18.015C11.3751 17.9499 11.4345 17.9043 11.4874 17.8587C12.1083 17.2663 12.7095 16.6478 13.3701 16.0944C13.7334 15.7884 13.6938 15.4564 13.674 15.1048C12.0951 16.1855 10.5295 16.1921 8.95066 15.0983C8.95066 15.2806 8.94405 15.4694 8.95727 15.6517C8.96387 15.7233 8.9969 15.8145 9.04975 15.86C9.78302 16.5697 10.5295 17.2793 11.3024 18.015ZM10.47 18.6725C9.7566 17.9889 9.04975 17.3184 8.34291 16.6478C7.88048 16.9277 7.43127 17.2012 6.96885 17.4876C7.42467 18.2038 7.85406 18.9004 8.30327 19.5905C8.4486 19.8118 8.70624 19.8574 8.93084 19.7077C9.45272 19.3691 9.94817 19.0241 10.47 18.6725ZM12.1414 18.6725C12.65 19.0176 13.1257 19.3431 13.6013 19.6621C13.9118 19.8704 14.1628 19.8184 14.3676 19.4928C14.6583 19.0306 14.9489 18.5684 15.2396 18.1061C15.3651 17.9043 15.4972 17.696 15.6294 17.4811C15.1603 17.1947 14.7177 16.9212 14.2619 16.6478C13.5485 17.3249 12.8548 17.9889 12.1414 18.6725ZM14.1232 8.43164C12.2405 8.43164 10.3842 8.43164 8.50145 8.43164C8.96387 8.9655 9.46593 9.36263 10.1926 9.36263C10.9457 9.36263 11.6922 9.36263 12.4452 9.36263C13.1653 9.36263 13.6608 8.9655 14.1232 8.43164ZM12.2867 20.0397C11.963 19.8184 11.679 19.623 11.3883 19.4408C11.3486 19.4147 11.2694 19.4082 11.2363 19.4342C10.9391 19.6296 10.6418 19.8314 10.3313 20.0397C10.5625 20.2676 10.7607 20.4694 10.9721 20.6647C11.1769 20.8535 11.4279 20.8535 11.6327 20.6582C11.8507 20.4629 12.0555 20.2611 12.2867 20.0397Z" fill="#13204D"/>
</g>
<defs>
<clipPath id="clip0_411_564">
<rect width="22.619" height="25" fill="white"/>
</clipPath>
</defs>
</svg>
