<svg width="13" height="15" viewBox="0 0 13 15" fill="none" xmlns="http://www.w3.org/2000/svg">
<path d="M5.48889 10.5801L2.43741 7.6225L3.43056 6.65991L5.48019 8.64648L5.48889 8.65491L5.49759 8.64648L9.56944 4.69991L10.5626 5.6625L5.48889 10.5801ZM4.47778 1.475H4.48646L4.48949 1.46686C4.64509 1.04924 4.90531 0.712957 5.27036 0.457745C5.63534 0.202579 6.0451 0.075 6.5 0.075C6.9549 0.075 7.36466 0.202579 7.72964 0.457745C8.09469 0.712957 8.35491 1.04924 8.51051 1.46686L8.51354 1.475H8.52222H11.5556C11.9496 1.475 12.2865 1.61084 12.567 1.88273C12.8475 2.1546 12.9875 2.48097 12.9875 2.8625V12.6625C12.9875 13.044 12.8475 13.3704 12.567 13.6423C12.2865 13.9142 11.9496 14.05 11.5556 14.05H1.44444C1.05044 14.05 0.713522 13.9142 0.433005 13.6423C0.152501 13.3704 0.0125 13.044 0.0125 12.6625V2.8625C0.0125 2.48097 0.152501 2.1546 0.433005 1.88273C0.713522 1.61084 1.05044 1.475 1.44444 1.475H4.47778ZM1.43194 12.6625V12.675H1.44444H11.5556H11.5681V12.6625V2.8625V2.85H11.5556H1.44444H1.43194V2.8625V12.6625ZM6.5 2.35C6.65938 2.35 6.79201 2.29938 6.89689 2.19773C7.00181 2.09604 7.05417 1.96731 7.05417 1.8125C7.05417 1.65769 7.00181 1.52896 6.89689 1.42727C6.79201 1.32562 6.65938 1.275 6.5 1.275C6.34062 1.275 6.20799 1.32562 6.10311 1.42727C5.99819 1.52896 5.94583 1.65769 5.94583 1.8125C5.94583 1.96731 5.99819 2.09604 6.10311 2.19773C6.20799 2.29938 6.34062 2.35 6.5 2.35Z" fill="#121212" stroke="#121212" stroke-width="0.025"/>
</svg>
