<svg width="12" height="12" viewBox="0 0 12 12" fill="none" xmlns="http://www.w3.org/2000/svg">
<path fill-rule="evenodd" clip-rule="evenodd" d="M2.06234 1.78535e-05C0.923239 1.78535e-05 0 0.923255 0 2.06236V9.93766C0 11.0768 0.923239 12 2.06234 12H9.93766C11.0768 12 12 11.0768 12 9.93766V8.4062C12 8.0954 11.7483 7.84368 11.4375 7.84368C11.1274 7.84368 10.875 8.0954 10.875 8.4062V9.93766C10.875 10.4552 10.4552 10.875 9.93766 10.875H2.06234C1.54482 10.875 1.12504 10.4552 1.12504 9.93766V2.06236C1.12504 1.54484 1.54482 1.12506 2.06234 1.12506H3.59381C3.90461 1.12506 4.15633 0.872637 4.15633 0.562539C4.15633 0.25174 3.90461 1.78535e-05 3.59381 1.78535e-05H2.06234ZM6.75027 1.78535e-05C6.43947 1.78535e-05 6.18775 0.25174 6.18775 0.562539C6.18775 0.872637 6.43947 1.12506 6.75027 1.12506H10.0797L5.602 5.60201C5.38261 5.82211 5.38261 6.17789 5.602 6.39799C5.8221 6.61738 6.17788 6.61738 6.39798 6.39799L10.8749 1.92031V5.24972C10.8749 5.56052 11.1274 5.81224 11.4375 5.81224C11.7483 5.81224 12 5.56052 12 5.24972V0.562522C12 0.251722 11.7483 0 11.4375 0L6.75027 1.78535e-05Z" fill="#121212"/>
</svg>
