<svg width="15" height="15" viewBox="0 0 15 15" fill="none" xmlns="http://www.w3.org/2000/svg">
<path fill-rule="evenodd" clip-rule="evenodd" d="M10.3124 1.49967C9.9609 1.4995 9.61423 1.58168 9.30021 1.73963C8.98618 1.89759 8.71353 2.12692 8.50412 2.40925C8.29471 2.69158 8.15436 3.01904 8.09432 3.36539C8.03429 3.71174 8.05624 4.06734 8.15841 4.40367L8.28841 4.83367L7.97141 5.15167L1.71741 11.4047C1.59276 11.5293 1.52273 11.6984 1.52273 11.8747C1.52273 12.051 1.59276 12.22 1.71741 12.3447C1.84206 12.4693 2.01113 12.5394 2.18741 12.5394C2.36369 12.5394 2.53276 12.4693 2.65741 12.3447L8.91041 6.08967L9.22841 5.77167L9.65841 5.90167C10.0762 6.02893 10.522 6.03185 10.9414 5.91007C11.3608 5.7883 11.7357 5.54709 12.0204 5.21588C12.305 4.88467 12.4872 4.47777 12.5445 4.04482C12.6019 3.61187 12.532 3.17159 12.3434 2.77767L10.8434 4.27867C10.7743 4.35034 10.6915 4.40751 10.6 4.44686C10.5086 4.48621 10.4102 4.50695 10.3106 4.50786C10.211 4.50877 10.1122 4.48984 10.02 4.45217C9.92784 4.41451 9.84407 4.35886 9.77362 4.28847C9.70317 4.21809 9.64744 4.13437 9.60968 4.04222C9.57193 3.95007 9.55291 3.85131 9.55373 3.75173C9.55454 3.65215 9.57519 3.55372 9.61445 3.4622C9.65371 3.37068 9.71081 3.28789 9.78241 3.21867L11.2824 1.71867C10.9796 1.57357 10.6481 1.49939 10.3124 1.49967ZM6.56241 3.74967C6.56248 2.98077 6.7989 2.23047 7.23965 1.60043C7.6804 0.970392 8.30417 0.491064 9.02644 0.227389C9.74872 -0.0362864 10.5346 -0.0715625 11.2776 0.12634C12.0206 0.324242 12.6848 0.745756 13.1802 1.33377C13.6756 1.92179 13.9783 2.64789 14.0473 3.4137C14.1163 4.1795 13.9481 4.94799 13.5657 5.61505C13.1833 6.28212 12.6051 6.8155 11.9094 7.14295C11.2137 7.4704 10.4342 7.57608 9.67641 7.44567L9.12341 7.99967L10.0624 8.93967L10.5324 8.46967L11.0624 7.93967L11.5924 8.46967L13.4674 10.3447C13.6734 10.5445 13.8376 10.7832 13.9505 11.0471C14.0633 11.3109 14.1226 11.5946 14.1248 11.8815C14.127 12.1685 14.0721 12.453 13.9632 12.7186C13.8544 12.9841 13.6939 13.2253 13.491 13.4283C13.2881 13.6312 13.0468 13.7917 12.7813 13.9005C12.5158 14.0093 12.2312 14.0642 11.9443 14.062C11.6573 14.0598 11.3737 14.0006 11.1098 13.8877C10.846 13.7749 10.6072 13.6107 10.4074 13.4047L8.53241 11.5297L8.00241 10.9997L8.53241 10.4697L9.00241 9.99967L8.06241 9.05967L3.71741 13.4047C3.51762 13.6107 3.27886 13.7749 3.01501 13.8877C2.75117 14.0006 2.46751 14.0598 2.18055 14.062C1.8936 14.0642 1.60907 14.0093 1.34353 13.9005C1.07799 13.7917 0.836737 13.6312 0.633821 13.4283C0.430905 13.2253 0.270374 12.9841 0.161572 12.7186C0.0527695 12.453 -0.00213182 12.1685 6.33187e-05 11.8815C0.00225846 11.5946 0.0615061 11.3109 0.174358 11.0471C0.28721 10.7832 0.451413 10.5445 0.657409 10.3447L5.00141 5.99967L2.56241 3.55967L1.94541 4.17667L1.43841 3.41567L0.438409 1.91567L0.0974094 1.40367L0.532409 0.969674L1.03241 0.469674L1.46641 0.0346741L1.97841 0.375674L3.47841 1.37567L4.23941 1.88267L3.62341 2.49967L6.06241 4.93967L6.61641 4.38567C6.5815 4.17545 6.56344 3.96277 6.56241 3.74967ZM11.0624 10.0597L12.4074 11.4047C12.5321 11.5293 12.6021 11.6984 12.6021 11.8747C12.6021 12.051 12.5321 12.22 12.4074 12.3447C12.2828 12.4693 12.1137 12.5394 11.9374 12.5394C11.7611 12.5394 11.5921 12.4693 11.4674 12.3447L10.1234 10.9997L11.0624 10.0597Z" fill="#121212"/>
</svg>
