<svg width="12" height="13" viewBox="0 0 12 13" fill="none" xmlns="http://www.w3.org/2000/svg">
<path fill-rule="evenodd" clip-rule="evenodd" d="M2.06234 0.400408C0.923239 0.400408 0 1.32365 0 2.46275V10.3381C0 11.4772 0.923239 12.4004 2.06234 12.4004H9.93766C11.0768 12.4004 12 11.4772 12 10.3381V8.80659C12 8.49579 11.7483 8.24407 11.4375 8.24407C11.1274 8.24407 10.875 8.49579 10.875 8.80659V10.3381C10.875 10.8556 10.4552 11.2753 9.93766 11.2753H2.06234C1.54482 11.2753 1.12504 10.8556 1.12504 10.3381V2.46275C1.12504 1.94523 1.54482 1.52545 2.06234 1.52545H3.59381C3.90461 1.52545 4.15633 1.27303 4.15633 0.96293C4.15633 0.65213 3.90461 0.400408 3.59381 0.400408H2.06234ZM6.75027 0.400408C6.43947 0.400408 6.18775 0.65213 6.18775 0.96293C6.18775 1.27303 6.43947 1.52545 6.75027 1.52545H10.0797L5.602 6.0024C5.38261 6.2225 5.38261 6.57828 5.602 6.79838C5.8221 7.01777 6.17788 7.01777 6.39798 6.79838L10.8749 2.3207V5.65011C10.8749 5.96091 11.1274 6.21263 11.4375 6.21263C11.7483 6.21263 12 5.96091 12 5.65011V0.962912C12 0.652112 11.7483 0.400391 11.4375 0.400391L6.75027 0.400408Z" fill="#DAF3FF"/>
</svg>
